<mxfile host="app.diagrams.net" agent="Mozilla/5.0 (Windows NT 10.0; Win64; x64) AppleWebKit/537.36 (KHTML, like Gecko) Chrome/134.0.0.0 Safari/537.36 Edg/134.0.0.0" version="26.1.1">
  <diagram name="第 1 页" id="xiOUvQu3qtOdcUAIfE1B">
    <mxGraphModel dx="809" dy="456" grid="1" gridSize="10" guides="1" tooltips="1" connect="1" arrows="1" fold="1" page="1" pageScale="1" pageWidth="827" pageHeight="1169" math="0" shadow="0">
      <root>
        <mxCell id="0" />
        <mxCell id="1" parent="0" />
        <mxCell id="-GHVY0OhcnfMqbA6yV-Y-1" value="" style="rounded=0;whiteSpace=wrap;html=1;" parent="1" vertex="1">
          <mxGeometry x="199" y="140" width="441" height="325" as="geometry" />
        </mxCell>
        <mxCell id="-GHVY0OhcnfMqbA6yV-Y-4" value="&lt;blockquote style=&quot;margin: 0 0 0 40px; border: none; padding: 0px;&quot;&gt;&lt;b&gt;Pattern code: &lt;/b&gt;SR_LABELED_LIST&lt;div&gt;&lt;b&gt;Description:&lt;/b&gt;&amp;nbsp;paragraph containing a non-empty labeled list of sentences that&lt;/div&gt;&lt;div&gt;indicate actions. The label is optional and indicates SR terms. The &quot;action&amp;nbsp;&lt;/div&gt;&lt;div&gt;sentences&quot; may be simple or continuous present/past sentences or imperative&lt;/div&gt;&lt;div&gt;sentences. The list may contain OB and EB sentences in no particular order.&lt;/div&gt;&lt;div&gt;&lt;b&gt;Rule: &lt;/b&gt;([SR label])&lt;/div&gt;&lt;div&gt;&lt;span style=&quot;white-space: pre;&quot;&gt;&#x9;&lt;/span&gt;&amp;nbsp; &amp;nbsp; &amp;nbsp; [[number/bullet] [action sentence]]+&lt;/div&gt;&lt;div&gt;&amp;nbsp; &amp;nbsp; &amp;nbsp; &amp;nbsp; &amp;nbsp; &amp;nbsp; &amp;nbsp; [([number/bullet]) [OB/EB sentence]]*&amp;nbsp;&lt;/div&gt;&lt;div&gt;&lt;b style=&quot;background-color: transparent; color: light-dark(rgb(0, 0, 0), rgb(255, 255, 255));&quot;&gt;Definitions:&lt;/b&gt;&lt;/div&gt;&lt;div&gt;&amp;nbsp; &amp;nbsp; &amp;nbsp;- [SR label] ∈ {&quot;how to reproduce&quot;, &quot;STR&quot;, &quot;To replicate&quot;,&lt;/div&gt;&lt;div&gt;&amp;nbsp; &amp;nbsp; &amp;nbsp; &amp;nbsp; &quot;Steps to reproduce&quot;, ...}&lt;/div&gt;&lt;div&gt;&amp;nbsp; &amp;nbsp; &amp;nbsp;- [number/bullet] ∈ {&quot;1.&quot;, &quot;1 - &quot;, &quot;-&quot;, &quot;*&quot;, ...}&lt;/div&gt;&lt;div&gt;&amp;nbsp; &amp;nbsp; &amp;nbsp;- [action sentence] ∈ {[present/past continuous sentence],&amp;nbsp;&lt;/div&gt;&lt;div&gt;&amp;nbsp; &amp;nbsp; &amp;nbsp; &amp;nbsp; [simple present/past sentence], [imperative sentence]}&lt;/div&gt;&lt;div&gt;&lt;b&gt;Example: &lt;/b&gt;(from Firefox 215939)&lt;/div&gt;&lt;div&gt;[Steps to Reproduce:]&lt;/div&gt;&lt;div&gt;[1.] [Strat Firebird]&lt;/div&gt;&lt;div&gt;[2.] [C-t to open a new tab.] [The second tab is now dispalyed.]&lt;/div&gt;&lt;div&gt;[3.] [Type &#39;hello&#39;.] [This text appears in the location bar.]&lt;/div&gt;&lt;div&gt;[4.] [Click on the header for the first tab to switch to that tab.]&lt;/div&gt;&lt;div&gt;[5.] [Click on the header for the second tab...]&lt;/div&gt;&lt;/blockquote&gt;" style="text;html=1;align=left;verticalAlign=middle;whiteSpace=wrap;rounded=0;" parent="1" vertex="1">
          <mxGeometry x="170" y="120" width="500" height="360" as="geometry" />
        </mxCell>
      </root>
    </mxGraphModel>
  </diagram>
</mxfile>
